<?xml version="1.0" encoding="UTF-8" standalone="no"?>
<svg
   version="1.0"
   width="1022.7049pt"
   height="971.12866pt"
   viewBox="0 0 1022.7049 971.12866"
   preserveAspectRatio="xMidYMid"
   id="svg36"
   sodipodi:docname="Logo.svg"
   xml:space="preserve"
   inkscape:export-filename="../Filipe/LuYoshCatering/public/assets/images/Logo.svg"
   inkscape:export-xdpi="96"
   inkscape:export-ydpi="96"
   xmlns:inkscape="http://www.inkscape.org/namespaces/inkscape"
   xmlns:sodipodi="http://sodipodi.sourceforge.net/DTD/sodipodi-0.dtd"
   xmlns="http://www.w3.org/2000/svg"
   xmlns:svg="http://www.w3.org/2000/svg"><defs
     id="defs40" /><sodipodi:namedview
     id="namedview38"
     pagecolor="#ffffff"
     bordercolor="#666666"
     borderopacity="1.0"
     inkscape:showpageshadow="2"
     inkscape:pageopacity="0.0"
     inkscape:pagecheckerboard="0"
     inkscape:deskcolor="#d1d1d1"
     inkscape:document-units="pt"
     showgrid="false" /><g
     id="g6911"
     transform="matrix(5.6331214,0,0,4.9916609,-4847.0912,-1895.7733)"
     style="stroke-width:0.188583"><rect
       style="fill:#ff6600;fill-opacity:1;stroke:none;stroke-width:0.212156"
       id="rect6904"
       width="181.55208"
       height="194.5502"
       x="860.46277"
       y="379.78809"
       ry="43.270325" /><path
       style="fill:#ffffff;fill-opacity:1;stroke:none;stroke-width:0.212156"
       d="m 881.72362,549.60199 c -4.15133,-2.00211 -4.1673,-2.18072 -3.9291,-43.87314 0.23085,-40.40615 2.46667,-104.81044 3.13777,-90.38348 0.4884,10.50082 4.0008,6.46211 4.218,-4.85008 0.10155,-5.28917 0.81825,-11.70081 1.59263,-14.24808 l 1.4079,-4.63143 2.11252,5.21517 c 1.1619,2.86834 2.1126,6.77901 2.1126,8.69037 0,5.20681 3.07868,6.08766 4.74405,1.35732 1.7685,-5.02338 3.89955,41.75953 4.26248,93.57559 l 0.25627,36.58825 17.1363,0.14731 c 19.7772,0.17002 41.21603,2.29155 59.74538,5.91225 l 12.96796,2.534 -18.52569,1.25134 c -10.18912,0.68824 -26.0286,1.33876 -35.19885,1.4456 -11.2083,0.13058 -15.1551,0.6804 -12.0417,1.67749 2.8821,0.92299 -3.76552,1.50563 -17.59942,1.54252 -12.31958,0.0328 -24.08918,-0.83697 -26.3991,-1.951 z"
       id="path5811" /><path
       style="fill:#ffffff;fill-opacity:1;stroke:none;stroke-width:0.212156"
       d="m 975.32474,558.58094 c -1.6556,-1.65567 -3.4381,-4.06725 -3.961,-5.35909 -0.75,-1.85312 -1.3224,-1.81835 -2.7126,0.16471 -3.725,5.31357 -4.4274,-2.77367 -3.8085,-43.85071 l 0.6331,-42.02842 -16.19049,-23.05246 c -10.3032,-14.67005 -15.4408,-23.51572 -14.1291,-24.32646 1.3847,-0.85575 0.486,-3.5923 -2.7373,-8.33589 -5.6015,-8.24325 -5.0805,-9.95913 1.679,-5.53016 2.6614,1.74382 5.9616,2.73974 7.3338,2.21318 1.5215,-0.58382 9.1325,6.65565 19.5051,18.55269 9.35549,10.73057 17.60299,18.80937 18.32759,17.9529 0.7247,-0.85646 5.6741,-7.1429 10.9988,-13.96986 11.74676,-15.06071 19.53796,-21.85988 25.04966,-21.85988 2.4528,0 5.8159,-2.26563 8.2498,-5.55771 5.5063,-7.44764 7.8182,-7.05549 5.6074,0.95118 -0.9884,3.57989 -1.3105,7.2964 -0.7156,8.25893 0.5948,0.96252 -8.1163,14.6657 -19.358,30.4515 l -20.43966,28.70147 0.012,25.56382 c 0.013,26.01488 -3.136,54.85666 -5.808,53.20526 -0.8109,-0.50117 -2.161,1.7385 -3.0001,4.97704 -1.4085,5.4352 -1.7574,5.65663 -4.5361,2.87796 z"
       id="path5813" /><path
       style="fill:#ffffff;fill-opacity:1;stroke:none;stroke-width:0.212156"
       d="m 926.29232,520.09401 c -2.91707,-1.05665 -4.76902,-3.45055 -4.76902,-6.16467 0,-1.74969 1.14583,-3.9202 2.60802,-4.94022 l 0.71096,-0.49596 -1.01135,-1.35094 c -1.51235,-2.02034 -2.18137,-4.08263 -2.18002,-6.72009 0.002,-1.77004 0.13176,-2.49148 0.67408,-3.71689 1.88463,-4.25852 5.18092,-6.07892 9.18144,-5.07056 1.50469,0.37927 1.7981,0.59307 2.86586,2.08843 1.27548,1.7863 1.79222,3.01099 1.81045,4.29062 0.009,0.66777 -0.0505,0.73277 -0.36061,0.3892 -0.20463,-0.22685 -0.51205,-0.92972 -0.68319,-1.56192 -0.29742,-1.09875 -0.71538,-1.55633 -0.71538,-0.78317 0,0.20146 -0.42688,-0.0789 -0.94857,-0.62309 -2.17908,-2.2729 -5.16659,-2.4089 -6.85415,-0.31202 -0.89282,1.10936 -1.58471,3.15207 -1.72376,5.08909 -0.10935,1.52301 -0.0234,1.95216 0.71721,3.5738 1.10788,2.42642 1.83848,2.93233 4.8821,3.38065 2.77673,0.40899 4.52778,1.28296 5.97762,2.9835 l 0.88918,1.04288 1.12007,-0.84989 c 0.61604,-0.46744 1.43447,-0.90306 1.81878,-0.96802 0.38432,-0.065 1.33138,-0.60167 2.10464,-1.19265 0.77321,-0.59098 1.4589,-1.00365 1.52376,-0.91703 0.0648,0.0866 -0.39723,0.72133 -1.02681,1.41048 -0.62959,0.68916 -1.14524,1.4329 -1.14597,1.65276 0,0.21986 -0.81572,1.14689 -1.81117,2.06006 l -1.80993,1.66031 0.62693,0.7204 c 0.34482,0.39621 0.59379,0.86551 0.55321,1.04288 -0.0406,0.17737 0.79926,1.12077 1.86629,2.09645 2.04879,1.87346 2.11636,2.19749 0.23334,1.11925 -0.78467,-0.44932 -1.17347,-0.53422 -1.23927,-0.27063 -0.0601,0.24071 -0.63484,-0.0223 -1.5396,-0.70437 -1.53928,-1.1605 -1.86712,-1.13239 -2.79673,0.23975 -1.35758,2.00395 -6.3758,2.9508 -9.54841,1.80161 z m 5.50282,-2.60003 c 0.69169,-0.2744 1.56831,-0.93208 1.94799,-1.46151 0.73143,-1.01988 1.3235,-3.11593 0.96841,-3.4287 -2.82512,-2.48873 -3.64074,-3.13023 -4.3021,-3.3836 -0.43553,-0.16687 -0.79187,-0.17712 -0.79187,-0.0228 0,0.15433 -0.58144,0.46695 -1.29214,0.6947 -1.59967,0.51264 -2.93609,2.0082 -3.14896,3.52392 -0.47735,3.39904 2.97235,5.52449 6.61867,4.07796 z m -5.82232,-7.18581 c -0.17541,-0.23434 -0.65532,0.24178 -0.65532,0.65015 0,0.22406 0.14514,0.19842 0.38551,-0.0681 0.21208,-0.23508 0.33347,-0.49701 0.26981,-0.58205 z"
       id="path5815" /></g></svg>
